<svg width="38" height="38" viewBox="0 0 38 38" fill="none" xmlns="http://www.w3.org/2000/svg">
<g clip-path="url(#clip0)">
<path d="M32.6562 18.4062H21.5977C21.4402 18.4062 21.2892 18.4688 21.1778 18.5802C21.0665 18.6915 21.0039 18.8425 21.0039 19C21.0039 19.1575 21.0665 19.3085 21.1778 19.4198C21.2892 19.5312 21.4402 19.5938 21.5977 19.5938H32.6562C32.8137 19.5938 32.9647 19.5312 33.0761 19.4198C33.1874 19.3085 33.25 19.1575 33.25 19C33.25 18.8425 33.1874 18.6915 33.0761 18.5802C32.9647 18.4688 32.8137 18.4062 32.6562 18.4062Z" fill="#1B1B1B"/>
<path d="M32.6562 22.4437H21.5977C21.4402 22.4437 21.2892 22.5063 21.1778 22.6176C21.0665 22.729 21.0039 22.88 21.0039 23.0375C21.0039 23.1949 21.0665 23.346 21.1778 23.4573C21.2892 23.5687 21.4402 23.6312 21.5977 23.6312H32.6562C32.8137 23.6312 32.9647 23.5687 33.0761 23.4573C33.1874 23.346 33.25 23.1949 33.25 23.0375C33.25 22.88 33.1874 22.729 33.0761 22.6176C32.9647 22.5063 32.8137 22.4437 32.6562 22.4437Z" fill="#1B1B1B"/>
<path d="M32.6562 14.3688H21.5977C21.4402 14.3688 21.2892 14.4313 21.1778 14.5427C21.0665 14.654 21.0039 14.8051 21.0039 14.9625C21.0039 15.12 21.0665 15.271 21.1778 15.3824C21.2892 15.4937 21.4402 15.5563 21.5977 15.5563H32.6562C32.8137 15.5563 32.9647 15.4937 33.0761 15.3824C33.1874 15.271 33.25 15.12 33.25 14.9625C33.25 14.8051 33.1874 14.654 33.0761 14.5427C32.9647 14.4313 32.8137 14.3688 32.6562 14.3688Z" fill="#1B1B1B"/>
<path d="M36.8125 6.82812H1.1875C0.872555 6.82812 0.57051 6.95324 0.347811 7.17594C0.125111 7.39864 0 7.70068 0 8.01562L0 29.9844C0 30.2993 0.125111 30.6014 0.347811 30.8241C0.57051 31.0468 0.872555 31.1719 1.1875 31.1719H36.8125C37.1274 31.1719 37.4295 31.0468 37.6522 30.8241C37.8749 30.6014 38 30.2993 38 29.9844V8.01562C38 7.70068 37.8749 7.39864 37.6522 7.17594C37.4295 6.95324 37.1274 6.82812 36.8125 6.82812ZM7.24969 8.01562H14.0511V11.3792C12.9815 10.8997 11.8226 10.6518 10.6504 10.6518C9.47821 10.6518 8.31929 10.8997 7.24969 11.3792V8.01562ZM14.0511 29.9844H7.24969V26.6208C8.32017 27.0992 9.47935 27.347 10.6519 27.3481C11.1156 27.349 11.5785 27.3092 12.0353 27.2294C12.7307 27.1145 13.4083 26.9099 14.0511 26.6208V29.9844ZM6.89047 25.0889L8.50547 24.6406C8.59453 25.0028 8.67172 25.4244 8.74 25.9023C8.71328 25.8905 7.46047 25.5312 6.89047 25.0889ZM8.39563 14.4756C8.60344 14.3777 9.12891 14.2144 10.3787 14.152C12.9556 14.0214 13.5227 15.298 13.7156 16.8625C13.4989 16.6844 13.2703 16.4825 13.1219 16.3519C12.5281 15.8205 12.16 15.4998 11.7206 15.8294C11.6345 15.8919 11.5667 15.9764 11.5244 16.074C11.4821 16.1717 11.4668 16.2789 11.4802 16.3845C11.0502 16.2788 10.6591 16.0534 10.352 15.7344C10.0997 15.4375 9.79688 15.1406 9.38125 15.1881C8.96562 15.2356 8.75484 15.5473 8.57078 15.8383C8.34461 16.2257 8.05683 16.5736 7.71875 16.8684C7.67227 16.9076 7.62371 16.9443 7.57328 16.9783C7.52115 16.6763 7.51116 16.3686 7.54359 16.0639C7.54359 16.0639 7.54359 16.0402 7.54359 16.0283C7.533 15.8108 7.57796 15.5942 7.67422 15.3989C7.80208 15.4629 7.94875 15.4787 8.08728 15.4432C8.22581 15.4078 8.3469 15.3235 8.42828 15.2059C8.50508 15.098 8.54359 14.9675 8.53767 14.8352C8.53176 14.7028 8.48176 14.5763 8.39563 14.4756ZM8.05422 18.0678C8.20668 17.984 8.34996 17.8845 8.48172 17.7709C8.88418 17.4305 9.23165 17.0299 9.51188 16.5834C10.2422 17.3583 11.6939 17.8956 12.4034 17.4206L12.4806 17.3612C12.7775 17.6106 13.018 17.8273 13.2495 17.9966C13.2495 18.0292 13.2495 18.0589 13.2495 18.0945C13.2495 21.8886 11.4891 21.8886 10.6519 21.8886C9.81469 21.8886 8.06906 21.8886 8.05422 18.0945C8.05422 18.0886 8.05422 18.0797 8.05422 18.0678ZM11.7206 24.32C11.5793 24.9149 11.4732 25.5176 11.403 26.125C10.9262 26.1738 10.4458 26.1738 9.96906 26.125C9.89906 25.5185 9.79299 24.9168 9.65141 24.323L9.91563 23.0227C10.4248 23.1066 10.9443 23.1066 11.4534 23.0227L11.7206 24.32ZM12.632 25.8786C12.7003 25.3977 12.7775 24.988 12.8636 24.6347L14.4311 25.0741C13.8687 25.4188 13.264 25.6893 12.632 25.8786ZM15.2386 29.9844V25.9736C16.9384 24.8577 18.1719 23.1592 18.7071 21.1975C19.2424 19.2359 19.0425 17.1463 18.145 15.3217C17.8976 15.6503 17.5441 15.8832 17.1445 15.9808C17.7769 17.3356 17.9683 18.8547 17.6919 20.3241C17.4155 21.7934 16.6852 23.1391 15.6038 24.1716L12.7389 23.3641L12.5875 22.6159C13.7572 21.942 14.3688 20.523 14.4311 18.3736C14.4687 18.3625 14.5054 18.3486 14.5409 18.332C14.6969 18.2477 14.822 18.116 14.8983 17.9559C14.9746 17.7958 14.9981 17.6157 14.9655 17.4414V17.3523C14.8438 15.9689 14.5914 12.7656 10.3223 12.9675C8.35406 13.0655 7.41 13.4098 7.1725 14.1253C7.1501 14.1927 7.13516 14.2624 7.12797 14.3331L7.08344 14.3569C6.63813 14.6152 6.39469 15.1525 6.35906 15.957C6.30859 16.4587 6.27297 17.572 6.87266 18.0352C6.87266 18.0559 6.87266 18.0797 6.87266 18.1005C6.87266 20.4398 7.52578 21.9598 8.7875 22.6456L8.64203 23.3611L5.72969 24.1805C5.58125 24.038 5.43281 23.8836 5.30219 23.7411C5.07609 24.0819 4.73959 24.3346 4.34922 24.4566C4.61224 24.7608 4.897 25.0456 5.20125 25.3086C5.34771 25.4372 5.49813 25.5599 5.6525 25.6767C5.78906 25.7806 5.92859 25.8756 6.07109 25.9736V29.9844H1.1875V8.01562H6.06219V12.0294C4.56161 13.0175 3.42072 14.4643 2.80973 16.1539C2.19873 17.8435 2.15037 19.6853 2.67188 21.4047C2.98324 21.1396 3.37633 20.9897 3.78516 20.9802C3.36857 19.5205 3.42683 17.9661 3.95152 16.5417C4.47622 15.1173 5.44017 13.8966 6.70411 13.056C7.96805 12.2153 9.46653 11.7983 10.983 11.8651C12.4995 11.9319 13.9555 12.4791 15.1406 13.4277C15.3333 13.0601 15.6483 12.7713 16.0312 12.6112C15.7818 12.3982 15.5201 12.2 15.2475 12.0175V8.01562H36.8125V29.9844H15.2386Z" fill="#1B1B1B"/>
<path d="M3.80896 23.3551C4.13688 23.3551 4.40271 23.0893 4.40271 22.7614C4.40271 22.4334 4.13688 22.1676 3.80896 22.1676C3.48104 22.1676 3.21521 22.4334 3.21521 22.7614C3.21521 23.0893 3.48104 23.3551 3.80896 23.3551Z" fill="#1B1B1B"/>
<path d="M16.723 14.8438C17.0509 14.8438 17.3168 14.5779 17.3168 14.25C17.3168 13.9221 17.0509 13.6562 16.723 13.6562C16.3951 13.6562 16.1293 13.9221 16.1293 14.25C16.1293 14.5779 16.3951 14.8438 16.723 14.8438Z" fill="#1B1B1B"/>
</g>
<defs>
<clipPath id="clip0">
<rect width="38" height="38" fill="white"/>
</clipPath>
</defs>
</svg>
