<svg width="30" height="30" viewBox="0 0 30 30" fill="none" xmlns="http://www.w3.org/2000/svg">
<g clip-path="url(#clip0)">
<path d="M9.89285 1.86088C9.94892 1.86061 10.0045 1.8503 10.0569 1.83041C10.1975 1.77728 10.3397 1.7265 10.4835 1.67806C10.6013 1.63828 10.6984 1.55334 10.7536 1.44191C10.8088 1.33049 10.8174 1.20172 10.7776 1.08392C10.7378 0.96613 10.6529 0.868965 10.5415 0.813803C10.43 0.758641 10.3013 0.750001 10.1835 0.789783C10.0272 0.841346 9.87567 0.895252 9.72879 0.951502C9.62643 0.990325 9.54089 1.06375 9.487 1.15905C9.43311 1.25434 9.41427 1.36549 9.43376 1.47322C9.45324 1.58095 9.50982 1.67846 9.59368 1.74884C9.67753 1.81922 9.78338 1.85803 9.89285 1.85853V1.86088Z" fill="#1B1B1B"/>
<path d="M0.0985262 13.2749C0.0797762 13.4312 0.0641512 13.5913 0.0516512 13.7554C0.0411452 13.8776 0.0789412 13.999 0.156932 14.0937C0.234923 14.1883 0.346898 14.2486 0.468839 14.2617H0.508682C0.628352 14.2638 0.744304 14.2201 0.832768 14.1394C0.921232 14.0588 0.975506 13.9474 0.984463 13.8281C0.996963 13.6718 1.01181 13.521 1.02899 13.3757C1.04329 13.2514 1.00762 13.1265 0.929819 13.0285C0.85202 12.9305 0.738471 12.8674 0.614151 12.8531C0.489831 12.8388 0.364923 12.8744 0.266906 12.9522C0.168889 13.03 0.105792 13.1436 0.0914949 13.2679L0.0985262 13.2749Z" fill="#1B1B1B"/>
<path d="M1.64064 9.73364C1.73238 9.73376 1.82215 9.70695 1.89881 9.65654C1.97547 9.60613 2.03565 9.53433 2.07189 9.45004C2.13126 9.31098 2.19298 9.1727 2.25704 9.0352C2.30957 8.92238 2.31512 8.79331 2.27249 8.6764C2.22985 8.55948 2.14252 8.46429 2.0297 8.41176C1.91688 8.35924 1.78781 8.35368 1.67089 8.39632C1.55398 8.43895 1.45879 8.52629 1.40626 8.63911C1.33751 8.78598 1.2711 8.93364 1.20704 9.08207C1.17679 9.1535 1.16474 9.23132 1.17196 9.30855C1.17918 9.38578 1.20546 9.46001 1.24843 9.52458C1.29141 9.58916 1.34973 9.64206 1.41818 9.67855C1.48663 9.71503 1.56307 9.73396 1.64064 9.73364Z" fill="#1B1B1B"/>
<path d="M0.567178 10.9031C0.523428 11.0593 0.482022 11.2156 0.442959 11.3718C0.42757 11.4315 0.424092 11.4937 0.432725 11.5548C0.441357 11.6158 0.46193 11.6746 0.49327 11.7277C0.52461 11.7808 0.566102 11.8272 0.615378 11.8643C0.664654 11.9013 0.720749 11.9283 0.780459 11.9437C0.84017 11.9591 0.902327 11.9626 0.963381 11.9539C1.02444 11.9453 1.08319 11.9247 1.1363 11.8934C1.1894 11.8621 1.23581 11.8206 1.27288 11.7713C1.30995 11.722 1.33695 11.6659 1.35233 11.6062C1.38827 11.4593 1.42733 11.3132 1.46952 11.1679C1.4863 11.1087 1.49124 11.0467 1.48406 10.9855C1.47688 10.9244 1.45773 10.8652 1.4277 10.8115C1.39766 10.7577 1.35734 10.7104 1.30902 10.6722C1.2607 10.6341 1.20533 10.6058 1.14608 10.589C1.08684 10.5722 1.02486 10.5673 0.963705 10.5745C0.902547 10.5817 0.843402 10.6008 0.789645 10.6308C0.735889 10.6609 0.688574 10.7012 0.650403 10.7495C0.612232 10.7978 0.583952 10.8532 0.567178 10.9125V10.9031Z" fill="#1B1B1B"/>
<path d="M8.59927 1.943C8.54103 1.83403 8.44212 1.75246 8.32405 1.71603C8.20599 1.6796 8.07831 1.69126 7.9688 1.74847L7.84692 1.81644L8.43755 2.55003C8.53486 2.48682 8.60527 2.38975 8.63514 2.27762C8.66501 2.16548 8.65223 2.04626 8.59927 1.943Z" fill="#1B1B1B"/>
<path d="M1.33586 18.3351C1.29992 18.1882 1.26633 18.0406 1.23508 17.8922C1.22515 17.8294 1.20257 17.7694 1.16871 17.7156C1.13486 17.6619 1.09043 17.6156 1.03813 17.5795C0.985838 17.5435 0.92676 17.5184 0.864487 17.5059C0.802215 17.4934 0.738048 17.4936 0.675882 17.5067C0.613716 17.5197 0.554849 17.5453 0.502853 17.5817C0.450858 17.6182 0.40682 17.6649 0.373413 17.7189C0.340006 17.7729 0.317928 17.8332 0.308517 17.896C0.299107 17.9588 0.302562 18.0229 0.318672 18.0843C0.351485 18.2406 0.386641 18.3968 0.424141 18.5531C0.438761 18.613 0.465028 18.6694 0.501445 18.7191C0.537861 18.7688 0.583712 18.8108 0.63638 18.8428C0.689048 18.8748 0.747502 18.8961 0.808404 18.9055C0.869306 18.9149 0.931464 18.9122 0.991328 18.8976C1.05119 18.883 1.10759 18.8567 1.1573 18.8203C1.20702 18.7839 1.24907 18.738 1.28106 18.6854C1.31306 18.6327 1.33436 18.5743 1.34376 18.5134C1.35317 18.4525 1.35048 18.3903 1.33586 18.3304V18.3351Z" fill="#1B1B1B"/>
<path d="M2.85933 22.1016C2.79237 22.0045 2.69124 21.9362 2.57612 21.9103C2.46101 21.8845 2.34037 21.903 2.2383 21.9621C2.13622 22.0213 2.06022 22.1168 2.02545 22.2296C1.99068 22.3423 1.99972 22.464 2.05074 22.5704C2.13199 22.7095 2.21558 22.847 2.30152 22.9829C2.37268 23.0718 2.47378 23.1318 2.58593 23.1516C2.69807 23.1714 2.8136 23.1497 2.91093 23.0906C3.00825 23.0315 3.08072 22.9389 3.11479 22.8302C3.14885 22.7216 3.14219 22.6042 3.09605 22.5001C3.0148 22.3657 2.9359 22.2329 2.85933 22.1016Z" fill="#1B1B1B"/>
<path d="M2.04607 20.4844C1.98825 20.3454 1.932 20.2055 1.87732 20.0649C1.85644 20.0058 1.82392 19.9514 1.78167 19.9051C1.73942 19.8588 1.6883 19.8214 1.63135 19.7952C1.57439 19.7689 1.51275 19.7544 1.45008 19.7524C1.38741 19.7505 1.32498 19.7611 1.26648 19.7837C1.20799 19.8062 1.15462 19.8403 1.10953 19.8839C1.06445 19.9275 1.02856 19.9797 1.004 20.0374C0.979444 20.095 0.96671 20.1571 0.966554 20.2198C0.966399 20.2825 0.978825 20.3446 1.0031 20.4024C1.06091 20.5508 1.11716 20.7032 1.17185 20.8594C1.22158 20.9754 1.31532 21.0668 1.43246 21.1136C1.54959 21.1604 1.68053 21.1588 1.79646 21.109C1.91239 21.0593 2.00381 20.9656 2.05062 20.8484C2.09743 20.7313 2.09579 20.6004 2.04607 20.4844Z" fill="#1B1B1B"/>
<path d="M16.7485 1.0453C16.9047 1.06405 17.0547 1.08515 17.1985 1.10858H17.2711C17.3954 1.11822 17.5185 1.07807 17.6132 0.996978C17.7079 0.915883 17.7666 0.800482 17.7762 0.676162C17.7858 0.551842 17.7457 0.428786 17.6646 0.334065C17.5835 0.239345 17.4681 0.180719 17.3438 0.171084C17.1875 0.146084 17.0313 0.123428 16.875 0.103115C16.7507 0.0878859 16.6254 0.122666 16.5267 0.199805C16.4281 0.276944 16.3641 0.390123 16.3488 0.514443C16.3336 0.638763 16.3684 0.764042 16.4455 0.862718C16.5227 0.961394 16.6359 1.02539 16.7602 1.04061L16.7485 1.0453Z" fill="#1B1B1B"/>
<path d="M28.3595 10.6078C28.4064 10.7516 28.4509 10.8961 28.4931 11.0414C28.5102 11.1008 28.5388 11.1563 28.5773 11.2046C28.6158 11.253 28.6635 11.2933 28.7175 11.3232C28.7716 11.3531 28.8311 11.3721 28.8925 11.3791C28.9539 11.386 29.0161 11.3808 29.0755 11.3637C29.1349 11.3466 29.1904 11.318 29.2387 11.2795C29.287 11.241 29.3273 11.1933 29.3573 11.1392C29.3872 11.0852 29.4062 11.0257 29.4131 10.9643C29.4201 10.9029 29.4148 10.8407 29.3978 10.7813C29.3525 10.625 29.3048 10.4688 29.2548 10.3125C29.2159 10.1944 29.1318 10.0966 29.0208 10.0406C28.9098 9.98452 28.7811 9.97486 28.663 10.0137C28.5449 10.0526 28.4471 10.1367 28.391 10.2477C28.335 10.3587 28.3253 10.4874 28.3642 10.6055L28.3595 10.6078Z" fill="#1B1B1B"/>
<path d="M26.5476 6.97031C26.6188 7.07225 26.7275 7.14174 26.85 7.1635C26.9724 7.18526 27.0984 7.1575 27.2004 7.08632C27.3023 7.01515 27.3718 6.90639 27.3935 6.78398C27.4153 6.66157 27.3875 6.53553 27.3164 6.43359C27.2242 6.30077 27.1296 6.17031 27.0328 6.04218C26.996 5.99278 26.9498 5.95111 26.897 5.91955C26.8441 5.88798 26.7855 5.86714 26.7246 5.85822C26.6636 5.8493 26.6015 5.85246 26.5418 5.86754C26.4821 5.88262 26.4259 5.90931 26.3765 5.94609C26.3271 5.98287 26.2855 6.02902 26.2539 6.0819C26.2223 6.13479 26.2015 6.19337 26.1926 6.25431C26.1836 6.31525 26.1868 6.37735 26.2019 6.43706C26.217 6.49678 26.2437 6.55294 26.2804 6.60234C26.3711 6.73202 26.4601 6.85468 26.5476 6.97031Z" fill="#1B1B1B"/>
<path d="M27.6867 8.92497C27.7404 9.03717 27.8366 9.12342 27.9539 9.16473C28.0713 9.20605 28.2003 9.19905 28.3124 9.14529C28.4246 9.09152 28.5109 8.99538 28.5522 8.87802C28.5935 8.76067 28.5865 8.6317 28.5328 8.51951C28.4624 8.37419 28.3906 8.23044 28.3171 8.08826C28.2887 8.03362 28.2497 7.98514 28.2025 7.94556C28.1553 7.90598 28.1008 7.87609 28.042 7.85759C27.9832 7.83909 27.9214 7.83234 27.86 7.83774C27.7987 7.84314 27.739 7.86057 27.6843 7.88904C27.6297 7.91751 27.5812 7.95646 27.5416 8.00367C27.502 8.05088 27.4722 8.10542 27.4537 8.16418C27.4352 8.22295 27.4284 8.28478 27.4338 8.34614C27.4392 8.40751 27.4566 8.46722 27.4851 8.52185C27.5539 8.65466 27.621 8.78904 27.6867 8.92497Z" fill="#1B1B1B"/>
<path d="M29.2828 12.2742C29.1601 12.2933 29.05 12.3602 28.9766 12.4604C28.9032 12.5606 28.8726 12.6858 28.8914 12.8086C28.9149 12.9648 28.936 13.1148 28.9547 13.2586C28.9691 13.3725 29.0247 13.4772 29.1111 13.5528C29.1975 13.6284 29.3086 13.6696 29.4235 13.6687H29.482C29.5431 13.6612 29.6022 13.6417 29.6557 13.6114C29.7093 13.581 29.7563 13.5404 29.7942 13.4919C29.8321 13.4433 29.86 13.3878 29.8764 13.3285C29.8928 13.2692 29.8974 13.2072 29.8899 13.1461C29.8695 12.9898 29.8469 12.8336 29.8219 12.6773C29.8139 12.6151 29.7935 12.555 29.7618 12.5008C29.7302 12.4466 29.688 12.3993 29.6377 12.3617C29.5874 12.3241 29.5301 12.297 29.4691 12.2819C29.4082 12.2669 29.3448 12.2643 29.2828 12.2742Z" fill="#1B1B1B"/>
<path d="M4.15787 23.9578C4.0775 23.8657 3.96438 23.8087 3.84259 23.7989C3.72081 23.789 3.59999 23.8271 3.50588 23.9051C3.41177 23.983 3.3518 24.0946 3.33874 24.216C3.32569 24.3375 3.36059 24.4593 3.436 24.5554C3.53912 24.6789 3.64381 24.8015 3.75006 24.9234C3.83242 25.0166 3.94845 25.0733 4.07262 25.081C4.19679 25.0887 4.31893 25.0468 4.41217 24.9644C4.50541 24.8821 4.56211 24.766 4.56981 24.6419C4.5775 24.5177 4.53555 24.3956 4.45319 24.3023C4.35319 24.1945 4.25475 24.0797 4.15787 23.9578Z" fill="#1B1B1B"/>
<path d="M14.468 0.9375H14.4844C14.6406 0.9375 14.7914 0.9375 14.9367 0.9375C15.061 0.9375 15.1803 0.888114 15.2682 0.800206C15.3561 0.712299 15.4055 0.59307 15.4055 0.46875C15.4055 0.34443 15.3561 0.225201 15.2682 0.137294C15.1803 0.049386 15.061 0 14.9367 0V0C14.7805 0 14.6195 0 14.4539 0C14.3296 0.0021756 14.2112 0.0536481 14.1249 0.143094C14.0385 0.23254 13.9912 0.352633 13.9934 0.476953C13.9955 0.601273 14.047 0.719637 14.1365 0.806007C14.2259 0.892376 14.346 0.939676 14.4703 0.9375H14.468Z" fill="#1B1B1B"/>
<path d="M18.9656 1.50465C19.1109 1.54684 19.2554 1.59215 19.3992 1.64059C19.5176 1.67882 19.6463 1.66844 19.7571 1.61174C19.8678 1.55504 19.9516 1.45666 19.9898 1.33825C20.028 1.21983 20.0176 1.09108 19.9609 0.980315C19.9042 0.869552 19.8059 0.785849 19.6874 0.74762C19.5312 0.69762 19.3749 0.649964 19.2187 0.604652C19.0993 0.569531 18.9709 0.58326 18.8617 0.642817C18.7525 0.702375 18.6714 0.802882 18.6363 0.92223C18.6011 1.04158 18.6149 1.16999 18.6744 1.27921C18.734 1.38844 18.8345 1.46953 18.9538 1.50465H18.9656Z" fill="#1B1B1B"/>
<path d="M12.1429 1.21878C12.1733 1.22176 12.204 1.22176 12.2344 1.21878C12.3828 1.18909 12.5312 1.16175 12.6797 1.13675C12.8034 1.11655 12.914 1.04803 12.9872 0.946279C13.0603 0.844526 13.0901 0.717868 13.0699 0.594169C13.0497 0.470471 12.9812 0.359864 12.8794 0.286681C12.7777 0.213497 12.651 0.183733 12.5273 0.203935C12.3711 0.230498 12.2148 0.259404 12.0586 0.290654C11.997 0.296656 11.9372 0.314723 11.8827 0.343825C11.8281 0.372927 11.7798 0.412493 11.7405 0.460264C11.6612 0.556743 11.6234 0.680787 11.6355 0.805107C11.6476 0.929427 11.7087 1.04384 11.8051 1.12318C11.9016 1.20251 12.0257 1.24028 12.15 1.22815L12.1429 1.21878Z" fill="#1B1B1B"/>
<path d="M0.548399 16.6031C0.609814 16.5984 0.669692 16.5816 0.72461 16.5537C0.779528 16.5258 0.82841 16.4873 0.868461 16.4405C0.908512 16.3937 0.938947 16.3395 0.958025 16.2809C0.977104 16.2224 0.984452 16.1606 0.979649 16.0992C0.968712 15.943 0.959337 15.7922 0.951524 15.6469C0.948754 15.5853 0.933887 15.5249 0.907771 15.4691C0.881654 15.4133 0.844801 15.3632 0.799315 15.3216C0.753829 15.28 0.700601 15.2478 0.642669 15.2268C0.584738 15.2058 0.523238 15.1964 0.461681 15.1992C0.400123 15.202 0.339715 15.2168 0.283903 15.243C0.228092 15.2691 0.177971 15.3059 0.136402 15.3514C0.0948336 15.3969 0.0626311 15.4501 0.0416334 15.5081C0.0206358 15.566 0.0112541 15.6275 0.0140242 15.689C0.0140242 15.8453 0.0241804 16.0062 0.0444929 16.1719C0.0533772 16.29 0.106659 16.4004 0.193622 16.4808C0.280585 16.5613 0.394781 16.6058 0.513243 16.6055L0.548399 16.6031Z" fill="#1B1B1B"/>
<path d="M25.1063 5.22183C25.1927 5.31134 25.3111 5.36286 25.4355 5.36505C25.5599 5.36725 25.6801 5.31995 25.7696 5.23354C25.8591 5.14714 25.9106 5.02872 25.9128 4.90433C25.915 4.77994 25.8677 4.65977 25.7813 4.57026C25.6688 4.45464 25.5548 4.34057 25.4391 4.22807C25.3487 4.14833 25.2311 4.10647 25.1106 4.1112C24.9902 4.11593 24.8762 4.16687 24.7923 4.25346C24.7085 4.34004 24.6612 4.4556 24.6603 4.57614C24.6594 4.69668 24.705 4.81292 24.7876 4.90073C24.8954 5.00698 25.0016 5.11401 25.1063 5.22183Z" fill="#1B1B1B"/>
<path d="M23.0392 3.45939C23.1626 3.54532 23.2853 3.63361 23.4072 3.72423C23.5069 3.79851 23.6321 3.83012 23.7552 3.8121C23.8783 3.79408 23.9891 3.7279 24.0634 3.62814C24.1377 3.52837 24.1693 3.40318 24.1513 3.28011C24.1333 3.15704 24.0671 3.04617 23.9673 2.97189C23.8376 2.87501 23.7064 2.78048 23.5736 2.68829C23.5231 2.65305 23.4662 2.6281 23.4061 2.61486C23.3459 2.60161 23.2838 2.60034 23.2232 2.61112C23.1008 2.63287 22.992 2.70237 22.9208 2.80431C22.8497 2.90625 22.8219 3.03229 22.8437 3.1547C22.8654 3.27712 22.9349 3.38587 23.0369 3.45704L23.0392 3.45939Z" fill="#1B1B1B"/>
<path d="M5.73752 25.582C5.64345 25.5062 5.52377 25.4697 5.40343 25.48C5.28309 25.4903 5.17138 25.5467 5.09158 25.6374C5.01179 25.728 4.97008 25.846 4.97514 25.9667C4.98021 26.0874 5.03166 26.2014 5.11877 26.2851C5.24064 26.3913 5.36408 26.496 5.48908 26.5991C5.53663 26.6389 5.59154 26.6688 5.65067 26.6873C5.7098 26.7058 5.77198 26.7124 5.83369 26.7069C5.89539 26.7013 5.95539 26.6837 6.01027 26.6549C6.06515 26.6262 6.11383 26.5869 6.15353 26.5394C6.19324 26.4918 6.22319 26.4369 6.24167 26.3778C6.26016 26.3187 6.26681 26.2565 6.26126 26.1948C6.25571 26.1331 6.23807 26.0731 6.20933 26.0182C6.18059 25.9633 6.14132 25.9146 6.09377 25.8749C5.97033 25.7796 5.85158 25.682 5.73752 25.582Z" fill="#1B1B1B"/>
<path d="M29.7236 17.8851C29.7548 17.7289 29.7829 17.5726 29.8079 17.4164C29.8178 17.3556 29.8156 17.2934 29.8014 17.2335C29.7872 17.1736 29.7614 17.117 29.7254 17.0671C29.6894 17.0171 29.6439 16.9748 29.5915 16.9424C29.5391 16.91 29.4808 16.8883 29.42 16.8785C29.3593 16.8686 29.2971 16.8708 29.2372 16.885C29.1773 16.8992 29.1207 16.925 29.0708 16.961C29.0208 16.997 28.9784 17.0425 28.9461 17.0949C28.9137 17.1473 28.892 17.2056 28.8821 17.2664C28.8587 17.4226 28.8321 17.5711 28.8025 17.7117C28.7785 17.8338 28.8041 17.9605 28.8735 18.0638C28.943 18.1671 29.0506 18.2385 29.1728 18.2625C29.2949 18.2864 29.4216 18.2608 29.5249 18.1914C29.6281 18.1219 29.6996 18.0143 29.7236 17.8921V17.8851Z" fill="#1B1B1B"/>
<path d="M28.9336 19.1625C28.8164 19.1229 28.6883 19.1312 28.5772 19.1857C28.4662 19.2401 28.3811 19.3362 28.3406 19.4531C28.2922 19.5969 28.2422 19.7398 28.1906 19.882C28.1611 19.9407 28.1442 20.0049 28.141 20.0705C28.1379 20.1361 28.1486 20.2016 28.1724 20.2628C28.1962 20.324 28.2326 20.3795 28.2792 20.4258C28.3259 20.472 28.3817 20.5079 28.4431 20.5312C28.5045 20.5545 28.5701 20.5646 28.6357 20.5609C28.7013 20.5572 28.7653 20.5397 28.8237 20.5097C28.8821 20.4796 28.9336 20.4377 28.9747 20.3865C29.0158 20.3353 29.0457 20.276 29.0625 20.2125C29.1187 20.0562 29.1726 19.9 29.2242 19.7437C29.2603 19.6281 29.2502 19.5029 29.196 19.3946C29.1418 19.2862 29.0478 19.203 28.9336 19.1625Z" fill="#1B1B1B"/>
<path d="M30 15.4828C30 15.3266 30 15.1656 30 15C30 14.8757 29.9506 14.7565 29.8627 14.6685C29.7748 14.5806 29.6556 14.5312 29.5312 14.5312C29.4069 14.5312 29.2877 14.5806 29.1998 14.6685C29.1119 14.7565 29.0625 14.8757 29.0625 15C29.0625 15.1562 29.0625 15.3078 29.0625 15.4547C29.0586 15.5775 29.1032 15.6968 29.1864 15.7871C29.2697 15.8774 29.3851 15.9314 29.5078 15.9375H29.5312C29.6532 15.9376 29.7703 15.8901 29.8578 15.8052C29.9453 15.7203 29.9963 15.6047 30 15.4828Z" fill="#1B1B1B"/>
<path d="M12.1663 28.7766C12.0179 28.747 11.8703 28.7141 11.7234 28.6782C11.6632 28.6629 11.6006 28.6598 11.5391 28.6689C11.4777 28.6781 11.4187 28.6993 11.3656 28.7315C11.3125 28.7636 11.2662 28.806 11.2296 28.8561C11.193 28.9063 11.1667 28.9632 11.1523 29.0236C11.1378 29.084 11.1355 29.1466 11.1455 29.2079C11.1555 29.2692 11.1775 29.3279 11.2104 29.3806C11.2433 29.4333 11.2863 29.4789 11.3369 29.5149C11.3875 29.5508 11.4448 29.5763 11.5054 29.5899C11.6617 29.6274 11.8179 29.6626 11.9742 29.6954C12.096 29.7203 12.2227 29.6957 12.3264 29.6271C12.4302 29.5586 12.5024 29.4516 12.5273 29.3298C12.5522 29.2079 12.5276 29.0812 12.459 28.9775C12.3905 28.8737 12.2835 28.8015 12.1617 28.7766H12.1663Z" fill="#1B1B1B"/>
<path d="M9.99148 28.1437C9.8493 28.089 9.70867 28.0328 9.56961 27.975C9.51282 27.9511 9.45189 27.9387 9.3903 27.9384C9.32871 27.9381 9.26766 27.9499 9.21064 27.9732C9.15362 27.9965 9.10174 28.0307 9.05797 28.0741C9.0142 28.1174 8.9794 28.169 8.95555 28.2257C8.93169 28.2825 8.91926 28.3435 8.91895 28.405C8.91864 28.4666 8.93047 28.5277 8.95376 28.5847C8.97705 28.6417 9.01134 28.6936 9.05467 28.7374C9.09801 28.7811 9.14954 28.816 9.20633 28.8398C9.36258 28.9023 9.51258 28.9625 9.65633 29.0203C9.71388 29.0421 9.77518 29.0524 9.83672 29.0506C9.89825 29.0488 9.95883 29.0348 10.015 29.0096C10.0711 28.9843 10.1218 28.9483 10.164 28.9035C10.2062 28.8586 10.2392 28.806 10.261 28.7484C10.2829 28.6908 10.2932 28.6295 10.2913 28.568C10.2895 28.5065 10.2756 28.4459 10.2503 28.3897C10.2251 28.3336 10.189 28.283 10.1442 28.2407C10.0994 28.1985 10.0467 28.1656 9.98914 28.1437H9.99148Z" fill="#1B1B1B"/>
<path d="M14.4141 29.0508C14.2578 29.0508 14.107 29.0422 13.9617 29.025C13.8374 29.016 13.7146 29.0568 13.6203 29.1383C13.526 29.2198 13.468 29.3355 13.459 29.4598C13.45 29.5841 13.4907 29.7069 13.5723 29.8012C13.6538 29.8955 13.7694 29.9535 13.8938 29.9625C14.05 29.9735 14.2109 29.9829 14.3766 29.9907H14.3953C14.5196 29.9931 14.6399 29.9461 14.7295 29.86C14.8192 29.7738 14.871 29.6556 14.8734 29.5313C14.8759 29.407 14.8289 29.2868 14.7428 29.1971C14.6566 29.1074 14.5384 29.0556 14.4141 29.0532V29.0508Z" fill="#1B1B1B"/>
<path d="M7.94529 27.1664C7.81404 27.0899 7.68436 27.0118 7.55623 26.9321C7.45099 26.8704 7.32587 26.8522 7.20743 26.8814C7.089 26.9105 6.98657 26.9846 6.9219 27.088C6.85724 27.1914 6.83542 27.316 6.86108 27.4352C6.88675 27.5544 6.95787 27.659 7.05936 27.7266C7.19686 27.8125 7.33514 27.8961 7.4742 27.9774C7.52755 28.0113 7.58721 28.0341 7.64959 28.0443C7.71198 28.0546 7.77579 28.0521 7.83719 28.0371C7.8986 28.022 7.95632 27.9947 8.0069 27.9568C8.05748 27.9189 8.09986 27.8711 8.1315 27.8164C8.16314 27.7616 8.18338 27.7011 8.191 27.6383C8.19862 27.5756 8.19347 27.5119 8.17586 27.4512C8.15825 27.3905 8.12853 27.3339 8.0885 27.285C8.04848 27.2361 7.99897 27.1957 7.94295 27.1664H7.94529Z" fill="#1B1B1B"/>
<path d="M18.9 28.514C18.7547 28.5562 18.6086 28.596 18.4617 28.6335C18.402 28.6489 18.3459 28.6759 18.2967 28.713C18.2474 28.75 18.2059 28.7965 18.1745 28.8496C18.1113 28.9568 18.0932 29.0848 18.1242 29.2054C18.1553 29.326 18.233 29.4293 18.3403 29.4926C18.4475 29.5559 18.5755 29.574 18.6961 29.5429C18.8524 29.5038 19.0086 29.4616 19.1649 29.4163C19.28 29.3783 19.376 29.2972 19.4326 29.1899C19.4892 29.0826 19.502 28.9575 19.4683 28.841C19.4346 28.7245 19.3571 28.6256 19.252 28.565C19.1469 28.5045 19.0224 28.487 18.9047 28.5163L18.9 28.514Z" fill="#1B1B1B"/>
<path d="M16.6782 28.9641C16.5219 28.9813 16.3719 28.9969 16.2282 29.0109C16.1039 29.0162 15.9867 29.0707 15.9026 29.1623C15.8184 29.254 15.7741 29.3753 15.7794 29.4996C15.7846 29.6239 15.8391 29.7411 15.9307 29.8252C16.0224 29.9094 16.1437 29.9537 16.268 29.9484H16.3079C16.4641 29.9344 16.6243 29.918 16.7883 29.8992C16.9127 29.8846 17.0261 29.8212 17.1037 29.723C17.1812 29.6247 17.2166 29.4997 17.202 29.3754C17.1874 29.2511 17.124 29.1376 17.0258 29.0601C16.9275 28.9825 16.8025 28.9471 16.6782 28.9617V28.9641Z" fill="#1B1B1B"/>
<path d="M21.0164 27.7149C20.8805 27.7789 20.743 27.8414 20.6039 27.9024C20.5475 27.927 20.4964 27.9625 20.4536 28.0069C20.4109 28.0512 20.3773 28.1036 20.3547 28.1609C20.3322 28.2183 20.3212 28.2795 20.3223 28.3411C20.3235 28.4027 20.3367 28.4635 20.3614 28.5199C20.386 28.5764 20.4215 28.6275 20.4659 28.6703C20.5102 28.713 20.5626 28.7466 20.6199 28.7691C20.6773 28.7917 20.7385 28.8027 20.8001 28.8015C20.8617 28.8004 20.9225 28.7871 20.9789 28.7625C21.1258 28.6985 21.2719 28.6321 21.4172 28.5633C21.5297 28.5102 21.6165 28.4145 21.6585 28.2974C21.7005 28.1802 21.6942 28.0512 21.641 27.9387C21.5879 27.8262 21.4922 27.7394 21.3751 27.6974C21.258 27.6554 21.1289 27.6617 21.0164 27.7149Z" fill="#1B1B1B"/>
<path d="M21.0821 2.31562C21.218 2.38125 21.3531 2.44922 21.4875 2.51953C21.5422 2.548 21.6019 2.56543 21.6632 2.57083C21.7246 2.57622 21.7864 2.56948 21.8452 2.55098C21.904 2.53248 21.9585 2.50259 22.0057 2.46301C22.0529 2.42343 22.0919 2.37494 22.1203 2.32031C22.1488 2.26568 22.1662 2.20598 22.1716 2.14461C22.177 2.08324 22.1703 2.02141 22.1518 1.96265C22.1333 1.90388 22.1034 1.84934 22.0638 1.80213C22.0242 1.75492 21.9757 1.71597 21.9211 1.6875C21.7774 1.6125 21.6328 1.53984 21.4875 1.46953C21.432 1.44291 21.3717 1.42749 21.3102 1.42415C21.2487 1.42081 21.1871 1.42963 21.129 1.45008C21.0709 1.47054 21.0174 1.50224 20.9715 1.54338C20.9257 1.58452 20.8884 1.63429 20.8617 1.68984C20.8351 1.7454 20.8197 1.80565 20.8164 1.86717C20.813 1.92868 20.8218 1.99025 20.8423 2.04836C20.8628 2.10647 20.8945 2.15998 20.9356 2.20584C20.9767 2.2517 21.0265 2.289 21.0821 2.31562Z" fill="#1B1B1B"/>
<path d="M9.63744 6.85084C9.67367 6.96172 9.74995 7.05511 9.85137 7.11276C9.95279 7.1704 10.0721 7.18816 10.1859 7.16256C11.9273 6.76646 13.1367 7.53756 14.1351 8.29224C14.8802 8.9079 15.7713 9.32119 16.7226 9.49224H16.7578C16.9324 9.45357 17.111 9.43626 17.2898 9.44068C17.5934 9.44792 17.8925 9.51546 18.1697 9.6394C18.447 9.76333 18.6968 9.94116 18.9046 10.1626L19.0312 10.2962C19.0687 8.95553 17.489 8.66959 16.8913 8.56412C16.0845 8.41964 15.3292 8.06745 14.6999 7.54224C13.8984 6.9399 12.4382 5.84068 10.3124 6.1899C9.78041 5.59459 7.64056 3.13365 5.339 0.180525C5.30114 0.131895 5.25407 0.0911976 5.20049 0.0607567C5.1469 0.0303158 5.08785 0.0107275 5.02669 0.00311024C4.96553 -0.00450707 4.90348 -4.20015e-06 4.84406 0.0163617C4.78464 0.0327277 4.72903 0.0606362 4.6804 0.0984938C4.63177 0.136351 4.59108 0.183417 4.56063 0.237003C4.53019 0.290588 4.51061 0.349645 4.50299 0.410801C4.49537 0.471958 4.49987 0.534015 4.51624 0.593431C4.53261 0.652847 4.56051 0.708458 4.59837 0.757088C6.97728 3.80865 9.18509 6.32818 9.63744 6.85084Z" fill="#1B1B1B"/>
<path d="M28.2797 21.9797C28.31 21.925 28.3291 21.8649 28.3359 21.8028C28.3427 21.7407 28.337 21.6778 28.3191 21.618C28.3013 21.5581 28.2716 21.5024 28.2319 21.4541C28.1922 21.4059 28.1433 21.3661 28.088 21.337C28.0326 21.3079 27.9721 21.2902 27.9098 21.2849C27.8476 21.2796 27.7849 21.2868 27.7254 21.306C27.666 21.3253 27.611 21.3562 27.5637 21.3971C27.5164 21.4379 27.4777 21.4877 27.45 21.5437L27.4242 21.5882L28.125 22.2656C28.1742 22.1742 28.2281 22.0781 28.2797 21.9797Z" fill="#1B1B1B"/>
<path d="M24.0071 19.5657C24.036 18.434 23.7626 17.3151 23.215 16.3243C22.6736 15.4125 21.9353 14.6696 21.2228 13.9524C21.0001 13.718 20.7775 13.5047 20.5618 13.2774L18.2181 10.8141C18.0947 10.6826 17.9465 10.577 17.7819 10.5033C17.6173 10.4297 17.4397 10.3895 17.2595 10.3852C17.0193 10.3756 16.7812 10.433 16.5718 10.551C16.3624 10.6689 16.1899 10.8428 16.0736 11.0532L15.34 10.275C15.2177 10.1438 15.0707 10.0382 14.9073 9.96417C14.744 9.89015 14.5676 9.84923 14.3884 9.84379C14.2124 9.8383 14.037 9.86778 13.8725 9.93055C13.7079 9.99331 13.5575 10.0881 13.4298 10.2094C13.3106 10.3257 13.213 10.4622 13.1415 10.6125C12.8945 10.3587 12.5581 10.2115 12.204 10.2024C12.0286 10.1978 11.854 10.228 11.6903 10.2911C11.5266 10.3543 11.377 10.4492 11.2501 10.5703C10.9917 10.8198 10.8422 11.1612 10.8343 11.5203C10.8264 11.8793 10.9607 12.227 11.2079 12.4875L11.6298 12.9352C11.4712 13.0016 11.3259 13.0961 11.2009 13.2141C10.9419 13.4632 10.792 13.8047 10.7841 14.164C10.7762 14.5233 10.9109 14.871 11.1587 15.1313L14.44 18.6071L12.715 18.2532C12.5237 18.2069 12.3244 18.2039 12.1318 18.2445C11.9392 18.285 11.7581 18.368 11.6017 18.4875C11.4179 18.6253 11.2664 18.8015 11.1579 19.0039C11.0494 19.2064 10.9865 19.4301 10.9736 19.6594C10.9056 21.0305 12.5111 21.3188 13.1157 21.4289C13.9226 21.5734 14.6778 21.9256 15.3071 22.4508C16.0103 22.9782 17.1821 23.8782 18.8931 23.8782C19.1593 23.8775 19.4249 23.8555 19.6876 23.8125C20.2126 24.4102 22.3525 26.8594 24.6493 29.8196C24.7258 29.9178 24.8381 29.9816 24.9616 29.997C25.0852 30.0124 25.2097 29.9781 25.3079 29.9016C25.4061 29.8251 25.47 29.7128 25.4853 29.5893C25.5007 29.4658 25.4664 29.3412 25.39 29.243C23.0134 26.1961 20.8056 23.6625 20.3532 23.1493C20.317 23.0384 20.2407 22.945 20.1393 22.8873C20.0379 22.8297 19.9186 22.8119 19.8048 22.8375C18.0728 23.2313 16.8751 22.4602 15.8673 21.7055C15.1213 21.0903 14.2293 20.6778 13.2775 20.5078C12.0493 20.2875 11.8923 19.9922 11.9064 19.7086C11.9127 19.617 11.9386 19.5277 11.9822 19.4469C12.0259 19.366 12.0863 19.2955 12.1595 19.2399C12.2075 19.2012 12.2637 19.174 12.3238 19.1602C12.3839 19.1464 12.4463 19.1464 12.5064 19.1602L15.1384 19.7016C15.6517 19.8071 15.8579 19.5469 15.9236 19.4297C15.9892 19.3125 16.1017 18.9985 15.7384 18.6141L11.8384 14.4868C11.7597 14.4077 11.7155 14.3007 11.7155 14.1891C11.7155 14.0775 11.7597 13.9705 11.8384 13.8914C11.9449 13.7956 12.0842 13.7444 12.2275 13.7485C12.3196 13.7487 12.4086 13.7819 12.4782 13.8422L16.2728 17.8594C16.3582 17.9499 16.4761 18.0026 16.6005 18.0062C16.7249 18.0097 16.8456 17.9636 16.9361 17.8782C17.0265 17.7927 17.0793 17.6748 17.0828 17.5504C17.0863 17.426 17.0403 17.3053 16.9548 17.2149L11.8876 11.8453C11.8089 11.7663 11.7647 11.6593 11.7647 11.5477C11.7647 11.4361 11.8089 11.3291 11.8876 11.25C11.9275 11.2122 11.9746 11.1829 12.0262 11.164C12.0778 11.145 12.1327 11.1368 12.1876 11.1399C12.2441 11.1415 12.2998 11.1544 12.3513 11.1777C12.4028 11.2011 12.4491 11.2344 12.4876 11.2758L17.5478 16.6407C17.5901 16.6854 17.6408 16.7215 17.6971 16.7466C17.7533 16.7718 17.8139 16.7857 17.8755 16.7874C17.9371 16.7891 17.9985 16.7787 18.056 16.7568C18.1136 16.7348 18.1663 16.7017 18.2111 16.6594C18.2558 16.6171 18.2918 16.5664 18.317 16.5101C18.3422 16.4539 18.3561 16.3932 18.3578 16.3317C18.3595 16.2701 18.3491 16.2087 18.3272 16.1512C18.3052 16.0936 18.2721 16.0409 18.2298 15.9961L13.9759 11.4844C13.9279 11.3856 13.9119 11.2743 13.9299 11.166C13.948 11.0577 13.9993 10.9576 14.0767 10.8797C14.1158 10.845 14.1614 10.8184 14.2109 10.8015C14.2604 10.7846 14.3128 10.7777 14.365 10.7813C14.4215 10.7829 14.4771 10.7958 14.5286 10.8191C14.5801 10.8425 14.6265 10.8758 14.665 10.9172L18.8509 15.4078C18.9373 15.4928 19.0533 15.5409 19.1744 15.5422C19.2956 15.5435 19.4125 15.4978 19.5007 15.4147C19.5889 15.3317 19.6416 15.2177 19.6476 15.0967C19.6536 14.9757 19.6125 14.857 19.5329 14.7657L16.9548 12.0258C16.8761 11.9468 16.8319 11.8397 16.8319 11.7282C16.8319 11.6166 16.8761 11.5096 16.9548 11.4305C16.9924 11.3935 17.0371 11.3647 17.0863 11.3457C17.1355 11.3268 17.1881 11.3181 17.2407 11.3203C17.2973 11.322 17.3529 11.3349 17.4044 11.3582C17.4559 11.3815 17.5022 11.4149 17.5407 11.4563L19.8353 13.8891L19.915 13.9571C20.1259 14.1774 20.3415 14.3953 20.5571 14.6133C21.2603 15.3164 21.9259 15.9914 22.4087 16.8047C22.8614 17.6331 23.0892 18.5656 23.0696 19.5094V19.5328C22.3946 21.1149 21.1712 20.9391 21.0306 20.9227C20.9084 20.8991 20.7819 20.9249 20.6788 20.9946C20.5758 21.0643 20.5046 21.172 20.481 21.2942C20.4574 21.4163 20.4832 21.5428 20.5529 21.6459C20.6226 21.749 20.7303 21.8202 20.8525 21.8438C21.4876 21.968 22.7837 21.811 23.6251 20.4891C24.4243 21.2649 26.2876 23.0789 29.2126 25.9664C29.2565 26.0097 29.3084 26.0439 29.3655 26.067C29.4226 26.0902 29.4836 26.1019 29.5452 26.1015C29.6068 26.101 29.6677 26.0885 29.7245 26.0645C29.7812 26.0405 29.8327 26.0056 29.8759 25.9618C29.9191 25.9179 29.9533 25.8659 29.9765 25.8089C29.9997 25.7518 30.0114 25.6907 30.0109 25.6291C30.0105 25.5675 29.9979 25.5066 29.974 25.4499C29.95 25.3932 29.9151 25.3417 29.8712 25.2985C26.5454 22.0313 24.5931 20.1328 24.0071 19.5657Z" fill="#1B1B1B"/>
<path d="M11.4657 17.4891C11.4657 17.4891 9.65864 15.6141 9.44302 15.3798C8.73989 14.6766 8.07427 14.0016 7.59145 13.1883C7.13882 12.3599 6.91095 11.4275 6.93052 10.4837V10.4602C7.60552 8.87819 8.82895 9.05397 8.96958 9.07038C9.09172 9.094 9.21825 9.06813 9.32132 8.99846C9.42439 8.92879 9.49557 8.82104 9.51919 8.69889C9.54281 8.57675 9.51694 8.45022 9.44727 8.34715C9.37761 8.24408 9.26985 8.1729 9.1477 8.14928C8.51489 8.02506 7.21645 8.18209 6.37505 9.50397C5.58755 8.73756 3.72192 6.92116 0.796923 4.03366C0.707059 3.95354 0.589815 3.91107 0.469489 3.91505C0.349163 3.91903 0.234982 3.96915 0.150609 4.05503C0.066236 4.14091 0.0181407 4.25596 0.0162908 4.37634C0.0144409 4.49672 0.0589782 4.61319 0.140672 4.70163C3.45708 7.98287 5.40708 9.85788 6.00005 10.4344C5.97119 11.5661 6.24465 12.685 6.79224 13.6758C7.32661 14.5876 10.7016 18.0469 10.7016 18.0469C10.8029 17.9346 10.9143 17.8319 11.0344 17.7399C11.169 17.6414 11.3135 17.5573 11.4657 17.4891Z" fill="#1B1B1B"/>
</g>
<defs>
<clipPath id="clip0">
<rect width="30" height="30" fill="white"/>
</clipPath>
</defs>
</svg>
